<?xml version="1.0" encoding="utf-8"?>
<!-- Generator: Adobe Illustrator 24.1.2, SVG Export Plug-In . SVG Version: 6.00 Build 0)  -->
<svg version="1.1" id="Layer_1" xmlns="http://www.w3.org/2000/svg" xmlns:xlink="http://www.w3.org/1999/xlink" x="0px" y="0px"
	 viewBox="0 0 500 684" style="enable-background:new 0 0 500 684;" xml:space="preserve">
<style type="text/css">
	.st0{fill:#70A823;}
</style>
<path class="st0" d="M498.7,540.9l-65.3-309c-1.1-5.2-5.1-9.2-10.3-10.3c-5.2-1.1-10.5,1-13.6,5.3l-44.1,61.9l-29.9-127.2
	c-1.2-5.3-5.6-9.3-10.9-10.1c-5.4-0.8-10.7,1.7-13.5,6.3l-21.5,36.1l-44-114.8c-2-5.4-7.3-8.8-13-8.6c-5.7,0.2-10.7,4.1-12.3,9.6
	l-77.5,265l-42.6-70.7c-2.7-4.6-7.9-7-13.2-6.3c-5.3,0.7-9.6,4.5-11.1,9.6l-74,262.4c-1.1,4-0.3,8.4,2.2,11.7s6.5,5.3,10.6,5.3
	h470.9c4,0,7.8-1.8,10.4-5C498.5,549,499.5,544.9,498.7,540.9z M32.4,530.1l60.9-215.6l20.6,34.2L93.1,451
	c-1.5,7.2,3.2,14.3,10.4,15.7c0.9,0.2,1.8,0.3,2.7,0.3c6.2,0,11.8-4.4,13.1-10.7l15-73.8l1.5,2.4c2.7,4.5,7.9,7,13.1,6.3
	c5.3-0.7,9.6-4.4,11.1-9.5l75-256.2l38.8,101.7l7.5,102.5c0.5,7,6.4,12.4,13.3,12.4c0.3,0,0.7,0,1,0c7.3-0.5,12.9-6.9,12.3-14.3
	l-7.3-100.2l16.6-27.8l29.1,123.7c1.2,5.1,5.3,9,10.4,10s10.4-1.1,13.4-5.3l4.9-6.9l12,67.9c1.1,6.5,6.8,11,13.1,11
	c0.8,0,1.5-0.1,2.3-0.2c7.3-1.3,12.1-8.2,10.8-15.5c0,0-16.4-91.9-17-93.1l17.4-24.5l55.6,263H32.4V530.1z"/>
</svg>
