<?xml version="1.0" encoding="utf-8"?>
<!-- Generator: Adobe Illustrator 24.1.2, SVG Export Plug-In . SVG Version: 6.00 Build 0)  -->
<svg version="1.1" id="Ebene_1" xmlns="http://www.w3.org/2000/svg" xmlns:xlink="http://www.w3.org/1999/xlink" x="0px" y="0px"
	 viewBox="0 0 104 57" style="enable-background:new 0 0 104 57;" xml:space="preserve">
<style type="text/css">
	.st0{fill:#402116;}
	.st1{clip-path:url(#SVGID_2_);}
</style>
<g>
	<path class="st0" d="M2.2,20V6.6h2.2c0.4,0,0.7,0.2,0.9,0.6l0.2,0.9C5.8,7.9,6,7.6,6.3,7.4s0.5-0.4,0.8-0.5C7.3,6.8,7.6,6.6,8,6.5
		c0.3-0.1,0.7-0.1,1.1-0.1c0.8,0,1.5,0.2,2,0.7c0.5,0.4,0.9,1,1.2,1.7c0.2-0.4,0.5-0.8,0.8-1.1c0.3-0.3,0.7-0.6,1-0.7
		c0.4-0.2,0.8-0.3,1.2-0.4c0.4-0.1,0.8-0.1,1.3-0.1c0.8,0,1.4,0.1,2,0.3c0.6,0.2,1.1,0.6,1.5,1c0.4,0.4,0.7,1,0.9,1.6
		c0.2,0.6,0.3,1.3,0.3,2.1V20h-3.6v-8.5c0-1.6-0.7-2.3-2-2.3c-0.3,0-0.6,0-0.8,0.1c-0.3,0.1-0.5,0.2-0.7,0.4
		c-0.2,0.2-0.3,0.4-0.5,0.7c-0.1,0.3-0.2,0.6-0.2,1V20H10v-8.5c0-0.8-0.2-1.4-0.5-1.8C9.1,9.3,8.7,9.2,8,9.2c-0.4,0-0.8,0.1-1.2,0.3
		c-0.4,0.2-0.7,0.5-1,0.8V20H2.2z"/>
	<path class="st0" d="M28.5,20.2c-0.6,0-1.1-0.1-1.6-0.3c-0.5-0.2-0.9-0.4-1.2-0.8S25.2,18.4,25,18c-0.2-0.5-0.2-1-0.2-1.6V9.2h-1.3
		c-0.2,0-0.4-0.1-0.5-0.2c-0.1-0.1-0.2-0.3-0.2-0.5V7.1L25,6.7l0.7-3.5c0.1-0.4,0.4-0.6,0.8-0.6h1.9v4.1h3.4v2.5h-3.4v7
		c0,0.4,0.1,0.7,0.3,0.9c0.2,0.2,0.4,0.3,0.8,0.3c0.2,0,0.3,0,0.4-0.1c0.1,0,0.2-0.1,0.3-0.1c0.1,0,0.2-0.1,0.2-0.1
		c0.1,0,0.1-0.1,0.2-0.1c0.1,0,0.2,0,0.3,0.1c0.1,0,0.1,0.1,0.2,0.2l1.1,1.7c-0.5,0.4-1,0.7-1.7,0.9S29.2,20.2,28.5,20.2z"/>
	<path class="st0" d="M37.3,8.2c0.5-0.5,1.1-0.9,1.7-1.3c0.6-0.3,1.4-0.5,2.1-0.5c0.8,0,1.5,0.2,2.1,0.5c0.6,0.3,1.1,0.7,1.6,1.3
		c0.4,0.6,0.8,1.3,1,2.1c0.2,0.8,0.4,1.7,0.4,2.7c0,1.1-0.1,2.1-0.4,2.9c-0.3,0.9-0.7,1.6-1.2,2.3c-0.5,0.6-1.1,1.1-1.8,1.5
		c-0.7,0.3-1.5,0.5-2.3,0.5c-0.4,0-0.8,0-1.1-0.1s-0.6-0.2-0.9-0.3c-0.3-0.1-0.5-0.3-0.8-0.5c-0.2-0.2-0.5-0.4-0.7-0.7l-0.1,0.8
		c-0.1,0.3-0.2,0.4-0.3,0.5c-0.1,0.1-0.3,0.1-0.6,0.1h-2.4V0.7h3.6V8.2z M37.3,16.5c0.3,0.4,0.7,0.7,1.1,0.8
		c0.4,0.2,0.8,0.2,1.2,0.2c0.4,0,0.8-0.1,1.2-0.2c0.4-0.2,0.7-0.4,0.9-0.8c0.3-0.3,0.5-0.8,0.6-1.4c0.1-0.6,0.2-1.2,0.2-2
		c0-0.7-0.1-1.3-0.2-1.8c-0.1-0.5-0.3-0.9-0.5-1.2c-0.2-0.3-0.5-0.6-0.8-0.7c-0.3-0.1-0.7-0.2-1.1-0.2c-0.6,0-1,0.1-1.5,0.4
		s-0.8,0.6-1.2,1.1V16.5z"/>
	<path class="st0" d="M65.1,20h-3c-0.3,0-0.6-0.1-0.8-0.2c-0.2-0.2-0.4-0.4-0.5-0.6l-1.3-3.6H52l-1.3,3.6c-0.1,0.2-0.2,0.4-0.5,0.6
		S49.8,20,49.5,20h-3l7.3-18.8h4L65.1,20z M58.6,12.8l-2-5.8c-0.1-0.3-0.2-0.7-0.4-1.1c-0.1-0.4-0.3-0.8-0.4-1.3
		c-0.1,0.5-0.2,0.9-0.4,1.3S55.1,6.8,55,7.1l-2,5.7H58.6z"/>
	<path class="st0" d="M69.9,0.7V20h-3.6V0.7H69.9z"/>
	<path class="st0" d="M76.3,8.4c0.3-0.3,0.6-0.6,0.9-0.8s0.6-0.5,1-0.6c0.3-0.2,0.7-0.3,1.1-0.4c0.4-0.1,0.8-0.1,1.3-0.1
		c0.7,0,1.4,0.2,2,0.5c0.6,0.3,1.1,0.8,1.5,1.3c0.4,0.6,0.8,1.3,1,2.1c0.2,0.8,0.4,1.8,0.4,2.9c0,1-0.1,1.9-0.4,2.8
		c-0.3,0.9-0.7,1.6-1.2,2.2c-0.5,0.6-1.1,1.1-1.8,1.5c-0.7,0.3-1.5,0.5-2.3,0.5c-0.7,0-1.3-0.1-1.8-0.3c-0.5-0.2-1-0.5-1.4-0.9v5.3
		h-3.6V6.6h2.2c0.4,0,0.7,0.2,0.9,0.6L76.3,8.4z M76.5,16.5c0.3,0.4,0.7,0.7,1.1,0.8c0.4,0.2,0.8,0.2,1.3,0.2c0.4,0,0.8-0.1,1.2-0.2
		c0.4-0.2,0.7-0.4,0.9-0.8s0.5-0.8,0.6-1.3c0.1-0.5,0.2-1.2,0.2-1.9c0-0.7-0.1-1.4-0.2-1.9c-0.1-0.5-0.3-0.9-0.5-1.3
		c-0.2-0.3-0.5-0.6-0.8-0.7c-0.3-0.1-0.6-0.2-1-0.2c-0.6,0-1.2,0.1-1.6,0.4s-0.8,0.6-1.2,1.1V16.5z"/>
	<path class="st0" d="M102.9,20H99c-0.3,0-0.5-0.1-0.6-0.2s-0.3-0.3-0.4-0.5l-4.1-6.9c0,0.1-0.1,0.2-0.1,0.3c0,0.1-0.1,0.2-0.1,0.3
		l-3.9,6.4c-0.1,0.2-0.2,0.3-0.4,0.4c-0.2,0.1-0.3,0.2-0.6,0.2h-3.6l6.2-9.7l-5.9-9.1h3.9c0.3,0,0.4,0,0.6,0.1
		c0.1,0.1,0.2,0.2,0.3,0.3l4,6.6c0-0.1,0.1-0.2,0.1-0.3c0.1-0.1,0.1-0.2,0.2-0.3l3.6-5.9c0.1-0.2,0.2-0.3,0.3-0.4
		c0.1-0.1,0.3-0.1,0.5-0.1h3.7l-6,8.9L102.9,20z"/>
</g>
<g>
	<defs>
		<rect id="SVGID_1_" x="-62.5" y="-9.7" width="228.5" height="80.1"/>
	</defs>
	<clipPath id="SVGID_2_">
		<use xlink:href="#SVGID_1_"  style="overflow:visible;"/>
	</clipPath>
	<g class="st1">
		<path class="st0" d="M21.6,50.5c0.7,0,1.2,0.2,1.6,0.6c0.4,0.4,0.6,0.9,0.6,1.5v3.7H1.1v-2c0-0.4,0.1-0.8,0.2-1.3
			c0.2-0.5,0.4-0.9,0.8-1.3l9.7-9.7c0.8-0.8,1.6-1.6,2.2-2.4c0.6-0.8,1.2-1.5,1.6-2.2c0.4-0.7,0.7-1.5,0.9-2.2
			c0.2-0.8,0.3-1.5,0.3-2.4c0-1.5-0.4-2.6-1.1-3.3c-0.8-0.8-1.8-1.1-3.2-1.1c-0.6,0-1.2,0.1-1.7,0.3c-0.5,0.2-1,0.4-1.4,0.7
			c-0.4,0.3-0.7,0.7-1,1.1c-0.3,0.4-0.5,0.8-0.6,1.3c-0.3,0.8-0.6,1.3-1.1,1.5c-0.5,0.2-1.1,0.3-1.9,0.2l-3.3-0.6
			c0.2-1.6,0.7-3,1.4-4.2s1.5-2.2,2.5-3c1-0.8,2.1-1.4,3.4-1.8c1.3-0.4,2.7-0.6,4.1-0.6c1.5,0,3,0.2,4.2,0.7s2.4,1.1,3.3,1.9
			c0.9,0.8,1.6,1.8,2.1,3c0.5,1.2,0.7,2.4,0.7,3.8c0,1.2-0.2,2.3-0.5,3.3c-0.3,1-0.8,2-1.4,2.9c-0.6,0.9-1.3,1.8-2.1,2.7
			c-0.8,0.9-1.6,1.8-2.5,2.6l-6.9,7.1c0.8-0.2,1.5-0.4,2.3-0.5c0.8-0.1,1.5-0.2,2.1-0.2H21.6z"/>
		<path class="st0" d="M50.8,39.9c0,2.9-0.3,5.3-0.9,7.4c-0.6,2.1-1.5,3.8-2.5,5.2c-1.1,1.4-2.4,2.4-3.8,3.1c-1.5,0.7-3.1,1-4.8,1
			s-3.3-0.3-4.8-1c-1.5-0.7-2.7-1.7-3.8-3.1c-1.1-1.4-1.9-3.1-2.5-5.2c-0.6-2.1-0.9-4.6-0.9-7.4c0-2.9,0.3-5.3,0.9-7.4
			s1.4-3.8,2.5-5.2c1.1-1.4,2.3-2.4,3.8-3.1c1.5-0.7,3.1-1,4.8-1s3.3,0.3,4.8,1c1.5,0.7,2.8,1.7,3.8,3.1c1.1,1.4,1.9,3.1,2.5,5.2
			C50.5,34.5,50.8,37,50.8,39.9z M44.3,39.9c0-2.3-0.2-4.2-0.5-5.7c-0.3-1.5-0.7-2.7-1.3-3.6c-0.5-0.9-1.1-1.5-1.8-1.8
			c-0.7-0.3-1.4-0.5-2.1-0.5s-1.4,0.2-2.1,0.5c-0.7,0.3-1.3,1-1.8,1.8c-0.5,0.9-0.9,2.1-1.3,3.6c-0.3,1.5-0.5,3.4-0.5,5.7
			c0,2.3,0.2,4.2,0.5,5.7s0.7,2.7,1.3,3.6c0.5,0.9,1.1,1.5,1.8,1.8s1.4,0.5,2.1,0.5s1.4-0.2,2.1-0.5c0.7-0.3,1.3-1,1.8-1.8
			c0.5-0.9,0.9-2.1,1.3-3.6S44.3,42.2,44.3,39.9z"/>
		<path class="st0" d="M75.3,51.7v4.6H56.9v-4.6h6.5V33.8c0-0.4,0-0.8,0-1.2c0-0.4,0-0.8,0.1-1.2l-4.3,3.6c-0.3,0.2-0.6,0.4-0.9,0.4
			c-0.3,0.1-0.6,0.1-0.8,0s-0.5-0.1-0.7-0.3s-0.3-0.3-0.5-0.4l-2-2.6l10-8.5h5.1v28.1H75.3z"/>
		<path class="st0" d="M102.6,23.5v2.7c0,0.8-0.1,1.4-0.3,1.9c-0.2,0.5-0.3,0.9-0.5,1.2L90,54.2c-0.3,0.6-0.7,1.1-1.2,1.5
			s-1.2,0.6-2.1,0.6h-4.5L94.4,32c0.3-0.6,0.6-1.1,0.9-1.6s0.7-0.9,1.1-1.3H81.3c-0.4,0-0.7-0.1-1-0.4c-0.3-0.3-0.4-0.6-0.4-1v-4.1
			H102.6z"/>
	</g>
</g>
</svg>
